<svg class="fa" width="15" height="16" viewBox="0 0 15 16" fill="none" xmlns="http://www.w3.org/2000/svg">
<path d="M6.88244 15.3168C6.95125 15.45 7.04332 15.5589 7.15072 15.6342C7.25813 15.7095 7.37765 15.7488 7.49898 15.7488C7.62032 15.7488 7.73984 15.7095 7.84724 15.6342C7.95465 15.5589 8.04672 15.45 8.11553 15.3168L14.8661 2.31767C14.9442 2.16774 14.99 1.99213 14.9985 1.80991C15.0071 1.6277 14.978 1.44585 14.9144 1.28414C14.8509 1.12242 14.7553 0.987011 14.6381 0.892628C14.5208 0.798244 14.3865 0.748493 14.2495 0.748781L0.748455 0.748781C0.611827 0.749533 0.477937 0.799924 0.361185 0.894533C0.244433 0.989143 0.149235 1.12439 0.0858294 1.28574C0.0224239 1.44708 -0.0067904 1.62841 0.0013282 1.81024C0.00944681 1.99206 0.0545911 2.1675 0.131906 2.31767L6.88244 15.3168Z" fill="white"/>
</svg>
